<svg xmlns="http://www.w3.org/2000/svg" width="70" height="80" viewBox="0 0 70 80"><g transform="translate(-251 -1748)"><path d="M45.593,0A8,8,0,0,1,52.55,4.05l12.208,21.5a8,8,0,0,1,0,7.9L52.55,54.95A8,8,0,0,1,45.593,59H21.407a8,8,0,0,1-6.957-4.05L2.243,33.45a8,8,0,0,1,0-7.9L14.45,4.05A8,8,0,0,1,21.407,0Z" transform="translate(310 1761) rotate(90)" fill="#ffaf00"/><path d="M16.076,0a6,6,0,0,1,5.166,2.948l2.955,5a6,6,0,0,1,0,6.1l-2.955,5A6,6,0,0,1,16.076,22H9.924a6,6,0,0,1-5.166-2.948l-2.955-5a6,6,0,0,1,0-6.1l2.955-5A6,6,0,0,1,9.924,0Z" transform="translate(321 1748) rotate(90)" fill="#ffaf00" opacity="0.3"/></g></svg>