<svg xmlns="http://www.w3.org/2000/svg" width="94" height="108" viewBox="0 0 94 108"><g transform="translate(-106 -114)"><path d="M63.626,0a8,8,0,0,1,6.932,4.007L88.7,35.507a8,8,0,0,1,0,7.985l-18.142,31.5A8,8,0,0,1,63.626,79H27.374a8,8,0,0,1-6.932-4.007L2.3,43.493a8,8,0,0,1,0-7.985l18.142-31.5A8,8,0,0,1,27.374,0Z" transform="translate(185 131) rotate(90)" fill="#ffaf00"/><path d="M22.863,0A6,6,0,0,1,28,2.9l5.129,8.5a6,6,0,0,1,0,6.2L28,26.1A6,6,0,0,1,22.863,29H12.137A6,6,0,0,1,7,26.1L1.871,17.6a6,6,0,0,1,0-6.2L7,2.9A6,6,0,0,1,12.137,0Z" transform="translate(200 114) rotate(90)" fill="#ffaf00" opacity="0.3"/></g></svg>