<svg xmlns="http://www.w3.org/2000/svg" xmlns:xlink="http://www.w3.org/1999/xlink" width="149" height="104" viewBox="0 0 149 104"><defs><clipPath id="a"><rect width="149" height="104" fill="none"/></clipPath></defs><g clip-path="url(#a)"><g transform="translate(-83 -1421)"><circle cx="5" cy="5" r="5" transform="translate(83 1421)" fill="#ffaf00"/></g><g transform="translate(-48 -1421)"><circle cx="5" cy="5" r="5" transform="translate(83 1421)" fill="#ffaf00"/></g><g transform="translate(-13 -1421)"><circle cx="5" cy="5" r="5" transform="translate(83 1421)" fill="#ffaf00"/></g><g transform="translate(22 -1421)"><circle cx="5" cy="5" r="5" transform="translate(83 1421)" fill="#ffaf00"/></g><g transform="translate(57 -1421)"><circle cx="5" cy="5" r="5" transform="translate(83 1421)" fill="#ffaf00"/></g><g transform="translate(-83 -1382)"><circle cx="5" cy="5" r="5" transform="translate(83 1421)" fill="#ffaf00"/></g><g transform="translate(-48 -1382)"><circle cx="5" cy="5" r="5" transform="translate(83 1421)" fill="#ffaf00"/></g><g transform="translate(-13 -1382)"><circle cx="5" cy="5" r="5" transform="translate(83 1421)" fill="#ffaf00"/></g><g transform="translate(22 -1382)"><circle cx="5" cy="5" r="5" transform="translate(83 1421)" fill="#ffaf00"/></g><g transform="translate(57 -1382)"><circle cx="5" cy="5" r="5" transform="translate(83 1421)" fill="#ffaf00"/></g><g transform="translate(-83 -1343)"><circle cx="5" cy="5" r="5" transform="translate(83 1421)" fill="#ffaf00"/></g><g transform="translate(-48 -1343)"><circle cx="5" cy="5" r="5" transform="translate(83 1421)" fill="#ffaf00"/></g><g transform="translate(-13 -1343)"><circle cx="5" cy="5" r="5" transform="translate(83 1421)" fill="#ffaf00"/></g><g transform="translate(22 -1343)"><circle cx="5" cy="5" r="5" transform="translate(83 1421)" fill="#ffaf00"/></g><g transform="translate(57 -1343)"><circle cx="5" cy="5" r="5" transform="translate(83 1421)" fill="#ffaf00"/></g></g></svg>