<svg xmlns="http://www.w3.org/2000/svg" width="437.8" height="437.861" viewBox="0 0 437.8 437.861"><g transform="translate(0)" opacity="0.2"><g transform="translate(0 0)"><path d="M-2669.572,325.391c-9.472,6.636-19.265,4.953-28.79,1.376-8.3-3.117-16.234-7.211-24.353-10.822-6.688-2.975-13.583-5.318-21-5.163a58.308,58.308,0,0,0-8.75,1.336c-2.325.408-3.093-.114-2.437-2.273,3.135-10.31.509-19.889-3.588-29.26-3.452-7.9-7.326-15.614-10.554-23.6a51.841,51.841,0,0,1-3.205-12.716c-.79-6.137-.242-12.214,4.214-17.385-9.977-1.492-15.781-8-19.632-15.995-4.269-8.866-7.444-18.259-11.073-27.431-2.924-7.393-6.228-14.579-12.281-20.009a54.689,54.689,0,0,0-6.594-4.627c-1.53-1.008-1.84-2.2-.178-3.076,10.951-5.782,15.691-16.048,19.831-26.864,3.333-8.706,6.5-17.526,10.63-25.855,2.154-4.344,5.891-8.106,9.551-11.428,2.381-2.161,5.911-3.056,8.925-4.518l.315.628c.028-.165.142-.392.071-.486-5.447-7.418-5.136-15.739-2.521-23.733,2.777-8.493,6.726-16.613,10.337-24.819,3.518-7.991,7.14-15.954,7.01-24.909-.043-3.012-.842-6.019-1.354-9.019-.413-2.42.174-3.187,2.5-2.49,9.806,2.944,19.023.757,28-3.144,8.071-3.506,15.948-7.477,24.1-10.776a54.08,54.08,0,0,1,13.246-3.415c6.123-.789,12.243-.346,17.4,4.157,2.067-11.832,10.625-17.378,20.073-21.7,7.168-3.279,14.82-5.489,22.1-8.541a134.1,134.1,0,0,0,15.382-7.634,27.766,27.766,0,0,0,10.436-11.4c.843-1.592,2.178-2.356,3.193-.446,5.96,11.215,16.52,15.986,27.618,20.1,6.9,2.554,13.855,4.989,20.615,7.876,6.413,2.739,12.347,6.426,16.3,12.393,1.74,2.623,2.792,5.7,4.17,8.6,1.889-.82,4.272-2.276,6.856-2.9,7.9-1.9,15.581-.337,22.888,2.654,7.971,3.262,15.708,7.091,23.582,10.6,6.609,2.942,13.449,5.144,20.782,4.888a57.365,57.365,0,0,0,8.2-1.365c2.394-.439,3.268.22,2.566,2.478-3.277,10.524-.357,20.219,3.813,29.74,3.565,8.139,7.521,16.115,10.831,24.354,2.811,7,4.072,14.388,2.042,21.892-.641,2.368-1.988,4.544-3.036,6.861,11.66,2.129,17.173,11.054,21.571,20.755,3.18,7.016,5.449,14.443,8.186,21.663,3.009,7.94,6.447,15.656,13.062,21.372a57.826,57.826,0,0,0,5.939,4.151c1.869,1.241,2,2.321.112,3.342-9.468,5.112-14.4,13.735-18.188,23.263-3.775,9.5-7.213,19.157-11.4,28.477a28.575,28.575,0,0,1-12.843,14.106,55.972,55.972,0,0,1-6.657,2.453c.533.893,1.263,1.984,1.862,3.144,3.066,5.943,2.584,12.185,1.314,18.418-1.941,9.53-6.688,17.958-10.758,26.644-3.824,8.166-7.438,16.419-7.282,25.666a54.617,54.617,0,0,0,1.377,8.734c.4,2.194-.277,3.078-2.365,2.421-10.112-3.185-19.541-.6-28.757,3.368-8.241,3.552-16.278,7.593-24.586,10.971-7.05,2.867-14.485,4.4-22.1,2.49-2.62-.655-5.035-2.127-7.552-3.229-1.487,9.659-8.179,15.5-16.37,19.377-9.139,4.327-18.792,7.565-28.208,11.309-9.6,3.818-18.356,8.741-23.466,18.326-.883,1.656-2.1,1.873-2.99.168-5.312-10.111-14.578-15.042-24.635-18.914-7.538-2.9-15.288-5.317-22.647-8.609a68.178,68.178,0,0,1-13.173-8.242C-2666.522,335.617-2668.593,331.309-2669.572,325.391Zm69.715-3.8c90.025.115,163.857-72.877,164.219-163.717S-2508.584-5.175-2595.949-7.078c-93.967-2.047-168.33,73.633-168.456,164.14C-2764.529,246.991-2691.28,321.816-2599.857,321.588Zm78.066-16.226c-2.826,1.336-5.587,2.573-8.266,3.963a3.1,3.1,0,0,0-1.128,1.741,11.308,11.308,0,0,0,8.233,14.817c8.36,2.171,16.23.111,23.853-3.1,6.782-2.86,13.388-6.131,20.115-9.125,8.365-3.724,16.948-6.525,26.315-5.54,1.287.135,2.573.264,4.139.425-2.453-12.693,1.779-23.687,6.875-34.525,2.675-5.689,5.364-11.383,7.731-17.2,2.986-7.338,4.715-14.911,2.516-22.86a11.073,11.073,0,0,0-13.722-8.105c-.925.222-2.21.5-2.589,1.174-1.514,2.686-2.736,5.536-4.151,8.5,1.094.1,1.806.137,2.514.223,5.886.717,9.124,3.359,9.488,8.462a20.085,20.085,0,0,1-1.006,8.191c-2.307,6.216-4.968,12.315-7.766,18.33-4.057,8.72-8.489,17.283-8.669,27.222-.031,1.754-1.242,1.751-2.581,1.983-4.226.734-8.621,1.132-12.575,2.645-6.941,2.657-13.58,6.1-20.388,9.112-5.657,2.506-11.25,5.267-17.562,5.789-5.8.479-9.469-2.255-10.659-7.922C-2521.347,308.259-2521.525,306.938-2521.791,305.362Zm-127.677,11.915c-2.959-1.025-5.723-2.037-8.529-2.908a3.187,3.187,0,0,0-2.023.249,11.248,11.248,0,0,0-6.164,12.734c.922,3.835,3.232,6.753,6.018,9.376,5.415,5.1,12.021,8.1,18.846,10.72,7.542,2.891,15.187,5.54,22.605,8.715,7.531,3.223,14.074,7.92,18.7,15.331,6.335-9.926,15.985-14.608,26.154-18.511,6.789-2.605,13.677-4.961,20.4-7.711,6.545-2.676,12.506-6.348,16.879-12.1,5.025-6.6,3.9-14.2-2.655-18.164a3.936,3.936,0,0,0-2.692-.636c-2.835.791-5.592,1.858-8.631,2.909.645.825,1.131,1.44,1.61,2.06,4.371,5.654,3.64,11.125-2.119,15.344a22.977,22.977,0,0,1-4.564,2.816c-5.88,2.45-11.776,4.882-17.764,7.045-8.712,3.148-17.563,5.983-24.54,12.471-1.66,1.543-2.681,1.1-4.338-.106-3.686-2.675-7.415-5.477-11.531-7.328-6.2-2.792-12.834-4.619-19.131-7.225a104.882,104.882,0,0,1-15.944-7.689c-5.959-3.756-6.511-9.359-2.385-15.054C-2650.738,318.9-2650.18,318.206-2649.468,317.277Zm-101.925-8.575c12.634-2.5,23.468,1.672,34.169,6.6,6.516,3,13,6.126,19.681,8.7,6.857,2.643,14.015,3.91,21.317,1.6a10.947,10.947,0,0,0,6.955-5.927c1.479-3.161,1.525-8.746-.37-9.978a91.846,91.846,0,0,0-8.689-4.474c-.082,1.251-.1,1.961-.178,2.665-.667,6.147-4.1,9.623-9.839,9.67a15.511,15.511,0,0,1-5.814-.911c-7.47-3.021-14.9-6.151-22.239-9.477-6.465-2.93-12.855-5.98-20.007-6.868-1.86-.231-4.375.159-5.4-.894-1.112-1.145-.886-3.631-1.16-5.543-1.258-8.775-5.232-16.536-9.031-24.368-3.407-7.023-7.021-13.978-8.188-21.84-.927-6.234,1.86-10.291,7.972-11.627,1.265-.277,2.555-.433,4.067-.685-1.369-2.828-2.55-5.431-3.9-7.944a3.414,3.414,0,0,0-1.844-1.352c-6.094-2.027-12.76,1.107-14.448,7.223a31.923,31.923,0,0,0-.961,10.092c.48,8.7,4.31,16.4,7.868,24.161,2.764,6.031,5.539,12.073,7.945,18.251A41.872,41.872,0,0,1-2751.393,308.7Zm-8.533-201.176c.65-1.966,1.234-3.842,1.89-5.692,1.351-3.806,1.008-5.565-2.091-8.19-3.577-3.029-7.586-3.911-12.023-1.91-6.706,3.024-10.853,8.587-13.851,14.891s-5.383,12.914-7.812,19.473c-4.39,11.86-8.876,23.614-20.327,31.152,8.93,5.7,13.7,14.179,17.342,23.411,2.506,6.347,4.646,12.837,7.113,19.2,3.145,8.112,7,15.812,14.292,21.115,6.47,4.7,13.752,3.38,17.654-3.14.394-.659.91-1.576.732-2.19-.858-2.967-1.934-5.871-3.012-9.026-.7.594-1.1.943-1.506,1.273-6.046,4.866-11.581,4.2-16.225-1.978a11.679,11.679,0,0,1-1.6-2.484c-3.107-7.64-6.306-15.248-9.18-22.977-2.894-7.783-5.876-15.462-11.715-21.623-1.2-1.262-.732-2.247.219-3.511,2.256-3,4.81-5.936,6.313-9.312,3.1-6.958,5.423-14.256,8.384-21.28a143.251,143.251,0,0,1,8.019-16.688c2.52-4.314,7.3-5.816,11.166-4.212A50.067,50.067,0,0,1-2759.926,107.526Zm81.794-98.519c2.869-1.392,5.451-2.6,7.983-3.912a2.85,2.85,0,0,0,1.191-1.362c2.218-5.359-.575-12.52-6.092-14.31a32.274,32.274,0,0,0-10.805-1.459c-7.866.254-14.9,3.638-21.993,6.717-8.3,3.6-16.6,7.233-25.076,10.392-5.781,2.155-11.961,1.765-18.375.926,2.492,13.381-2.345,24.926-7.847,36.339-2.145,4.447-4.228,8.931-6.137,13.483-2.939,7.014-5.036,14.214-3.864,21.973,1.269,8.4,7.524,12.8,15.107,10.589.57-.167,1.338-.406,1.575-.848,1.464-2.735,2.8-5.538,4.258-8.469-1.708-.274-3.038-.416-4.333-.706-5.688-1.271-8.547-5.255-7.739-11.068a34.48,34.48,0,0,1,1.8-7.572c1.8-4.684,3.8-9.3,5.954-13.834,4.513-9.482,9.563-18.754,9.9-29.648.019-.606,1.326-1.513,2.158-1.688,2.272-.479,4.644-.483,6.917-.957,8.539-1.781,16.071-6.068,23.859-9.721,6.333-2.97,12.619-6.1,19.709-6.971,5.757-.7,9.852,2.062,11.162,7.7C-2678.52,5.9-2678.4,7.239-2678.131,9.007Zm238.151,197.722c-1.01,2.915-1.962,5.523-2.8,8.167a3.292,3.292,0,0,0,.054,2.04,11.226,11.226,0,0,0,12.575,6.516c6.425-1.54,10.347-6.226,13.776-11.374,5.143-7.719,7.635-16.605,10.782-25.193,4.175-11.386,8.753-22.5,19.689-29.682-10.873-7.143-15.53-18.111-19.625-29.455-1.767-4.9-3.482-9.819-5.427-14.646-2.947-7.311-6.619-14.183-13.046-19.136-6.623-5.1-14.494-3.918-18.251,2.752a3.485,3.485,0,0,0-.672,2.217c.859,2.885,1.938,5.705,3,8.724.6-.457.955-.722,1.3-.993,6.792-5.247,12.612-4.656,16.885,2.75,3.466,6.01,5.988,12.621,8.435,19.149,3.592,9.585,6.4,19.495,13.637,27.267.49.525.257,2.471-.336,3.14a53.735,53.735,0,0,0-9.834,17.222c-2.734,7.314-5.226,14.726-8.205,21.937a38.729,38.729,0,0,1-5.63,9.414c-3.417,4.225-7.882,4.679-12.527,1.866C-2437.41,208.672-2438.528,207.765-2439.981,206.729Zm-81.8-197.68c.131-1.248.187-2.122.318-2.984,1.064-6.99,5.344-10.16,12.34-9.008a28.249,28.249,0,0,1,6.5,1.65c7.176,3.066,14.289,6.285,21.379,9.549,6.968,3.209,14.042,5.982,21.841,6.217,1.62.049,2.112.832,2.212,2.365.151,2.32.136,4.778.925,6.9,2.708,7.3,5.564,14.551,8.689,21.679,3.058,6.978,6.722,13.7,7.866,21.379.912,6.121-1.912,10.312-8,11.636-1.194.26-2.416.392-4.042.648,1.454,2.939,2.747,5.657,4.161,8.31a2.782,2.782,0,0,0,1.541.973,11.093,11.093,0,0,0,14.343-7.381c2.267-7.209,1.188-14.305-1.507-21.063-3.185-7.989-6.988-15.731-10.446-23.613-3.64-8.293-6.415-16.791-5.562-26.052.127-1.372.265-2.743.409-4.236-1.683.174-3.007.332-4.333.446-9.451.814-18.051-2.174-26.523-5.854-8.962-3.892-17.872-7.947-27.011-11.382a26.477,26.477,0,0,0-16.441-.592,11.234,11.234,0,0,0-8.216,13.679c.228.907.542,2.137,1.215,2.527C-2527.512,6.357-2524.745,7.587-2521.779,9.049Zm-28.569-11.875c2.879,1,5.481,1.947,8.119,2.778a3.209,3.209,0,0,0,2.025-.07,11.3,11.3,0,0,0,6.057-13.943c-1.714-4.662-5.069-7.98-8.946-10.861-7.487-5.564-16.273-8.291-24.891-11.386-12.151-4.364-24.255-8.805-31.768-20.145-2.676,2.766-5.059,5.724-7.941,8.067a47.919,47.919,0,0,1-9.518,6.042c-4.852,2.312-9.965,4.07-14.953,6.1-6.642,2.7-13.426,5.118-19.857,8.258-5.7,2.781-10.583,6.8-13.352,12.828a11.258,11.258,0,0,0,5.5,14.991,2.732,2.732,0,0,0,1.762.281c2.847-.93,5.654-1.979,8.539-3.01-.947-1.3-1.8-2.339-2.514-3.467-2.9-4.587-2.4-9.183,1.714-12.78a26.6,26.6,0,0,1,6.735-4.37c5.589-2.435,11.286-4.65,17.031-6.694,8.987-3.2,18.018-6.209,25.222-12.922.53-.493,2.33-.188,3.176.335,2.127,1.314,3.848,3.416,6.085,4.4,8.115,3.568,16.438,6.662,24.56,10.215,5.89,2.577,11.915,5.089,17.272,8.566,5.113,3.318,5.493,8.272,2.287,13.463C-2548.661-5.1-2549.435-4.116-2550.348-2.826Zm82.168,300.145a21.538,21.538,0,0,1-3-1.432c-2.908-1.91-6.049-3.61-8.54-5.98a8.5,8.5,0,0,1-.017-12.513,8.638,8.638,0,0,1,12.363-.061,26.491,26.491,0,0,1,4.191,5.225c1.357,2.147,2.377,4.507,3.705,7.089,1.232-3.511,2.146-6.776,3.5-9.848,3.4-7.714,7.246-15.241,10.414-23.045a44.058,44.058,0,0,0,2.7-11.968c.331-3.231-1.787-5.022-5.48-5.89-4.515-1.061-4.867-.933-6.966,2.616a170,170,0,0,1-20.873,28.362,169.761,169.761,0,0,1-40.563,32.54,4.182,4.182,0,0,0-1.905,1.726,7.751,7.751,0,0,0,8.693,10.205,46.518,46.518,0,0,0,9.8-2.783C-2489.471,306.972-2478.9,302.12-2468.18,297.319Zm-271.894-8.354a23.436,23.436,0,0,1,1.849-3.928c1.916-2.792,3.724-5.781,6.164-8.06,3.573-3.337,8.571-2.871,11.87.494a8.614,8.614,0,0,1,.3,12.125,21.157,21.157,0,0,1-4.492,3.815c-2.472,1.568-5.131,2.841-7.9,4.339.473.21.846.4,1.235.547,4.683,1.8,9.423,3.465,14.039,5.423,6.687,2.837,13.206,6.08,19.952,8.756a31.2,31.2,0,0,0,9.427,1.891c3.127.2,5.131-1.939,5.881-5.235,1.137-5,.871-5.057-2.687-7.456-7.805-5.263-15.78-10.362-23.065-16.292a159.967,159.967,0,0,1-37.643-44.667c-.5-.863-1.263-1.974-2.1-2.178-6.275-1.536-11.16,3.063-9.758,9.318a65.282,65.282,0,0,0,3.6,11.535C-2749.111,269.333-2744.523,279.143-2740.074,288.965Zm146.524,60.289c7.957-3,16.7-6.119,25.307-9.592a100.98,100.98,0,0,0,14.5-6.979c5.9-3.567,6.108-7.255,1.668-12.574a3.407,3.407,0,0,0-4.111-1.366,161.463,161.463,0,0,1-40.373,5.83,167.85,167.85,0,0,1-47.119-5.708,4.673,4.673,0,0,0-2.561-.307c-4.612,1.83-6.11,9.254-2.3,12.377a36.438,36.438,0,0,0,9.144,5.58c11.167,4.553,22.474,8.763,33.534,13.029a25.284,25.284,0,0,1-1.3-3.671,76.835,76.835,0,0,1-1.642-9.489,8.247,8.247,0,0,1,3.1-7.14c2.85-2.4,6.158-2.528,9.389-1.223a7.939,7.939,0,0,1,5.095,8.407C-2591.613,341-2592.832,345.506-2593.549,349.254Zm-199.16-185.7a67.9,67.9,0,0,1,3.091,6.238c3.03,7.869,5.664,15.9,8.951,23.658a67.413,67.413,0,0,0,7.215,12.515c1.98,2.789,5.152,2.806,8.231.955,3.974-2.388,4.395-3.308,3.345-7.224a164.62,164.62,0,0,1-5.517-38.832,163.834,163.834,0,0,1,5.646-46.617c.272-1.014.729-2.226.42-3.108-1.684-4.8-9.312-6.25-12.528-2.281a33.363,33.363,0,0,0-5.053,8.21c-4.647,11.42-9.007,22.958-13.187,33.716,3.67-.72,8.063-1.838,12.524-2.365a8.325,8.325,0,0,1,7.655,3.178,8.763,8.763,0,0,1,1.088,9.392,8,8,0,0,1-8.476,5.019C-2783.859,165.6-2788.341,164.39-2792.709,163.555Zm384.845-12.935c-2.16-5.413-4.731-11.592-7.1-17.848-2.79-7.377-4.936-15.025-9.4-21.669-3.9-5.8-7.516-6.218-12.818-1.621a3.5,3.5,0,0,0-1.263,3.885c1.928,10.018,4.216,20.019,5.271,30.14,1.972,18.92-.111,37.628-4.831,56.041-1.065,4.151-1.075,4.148,2.481,6.806,3.643,2.722,6.866,2.526,9.618-1.063a37.211,37.211,0,0,0,5.138-8.476c4.507-11.179,8.71-22.48,12.984-33.623a25.11,25.11,0,0,1-3.772,1.308c-3.232.644-6.506,1.541-9.757,1.522-5.347-.03-8.616-3.771-8.577-9,.037-5,3.453-8.811,8.686-8.575C-2416.541,148.657-2411.924,149.921-2407.864,150.619ZM-2606.538-34.867c-5.926,2.327-12.622,4.886-19.26,7.584-6.224,2.529-12.5,4.975-18.521,7.932a15.924,15.924,0,0,0-5.948,5.534c-1.779,2.755.273,5.2,1.915,7.518,1.444,2.042,3.031,2.28,5.443,1.756,8.05-1.75,16.117-3.634,24.28-4.611a163.324,163.324,0,0,1,60.392,4.237c4.8,1.23,5.2,1.091,7.836-2.98,2.09-3.222,1.874-6.214-1.15-8.6a35.291,35.291,0,0,0-8.176-5.1c-7.713-3.174-15.624-5.867-23.389-8.919-3.692-1.451-7.233-3.284-10.837-4.941.889,3.224,1.913,6.35,2.572,9.552a15.646,15.646,0,0,1,.13,5.608c-.855,5.134-4.518,7.784-9.827,7.411a8.081,8.081,0,0,1-7.694-8.766C-2608.529-26.3-2607.246-30.905-2606.538-34.867Zm-133.6,60.712c-4.093,8.96-8.578,18.136-12.47,27.556a82.328,82.328,0,0,0-4.476,15.678c-.623,3.205,1.761,5.619,4.934,6.378,4.812,1.15,5.551.869,7.664-2.828a157.347,157.347,0,0,1,21.071-28.547,168.066,168.066,0,0,1,39.546-31.746c.955-.553,2.2-1.307,2.473-2.22,1.774-5.852-3.01-11.338-8.914-9.888A115.342,115.342,0,0,0-2705.557,5.4c-8.732,3.5-17.352,7.274-26.013,10.949-.183.078-.286.347-.505.632a13.436,13.436,0,0,1,2.079.885c3.294,2.135,6.817,4.019,9.755,6.571a8.061,8.061,0,0,1,2.188,9.388,8.539,8.539,0,0,1-7.453,5.824c-4.579.407-7.668-2.244-10.028-5.691C-2737.4,31.239-2738.815,28.218-2740.142,25.846Zm271.391-9.042c-5.9-2.562-12.182-5.4-18.554-8.024-7.035-2.892-14.021-6.011-21.274-8.228-6.374-1.948-9.64.941-10.137,7.631a3.631,3.631,0,0,0,1.878,3.723c8.309,5.638,16.856,11.01,24.643,17.311a158.022,158.022,0,0,1,37.289,44.264c.541.935,1.371,2.136,2.278,2.359,6.188,1.522,11.137-3.351,9.475-9.5A120.408,120.408,0,0,0-2448.1,51.87c-3.146-7.627-6.655-15.1-9.96-22.666a33.636,33.636,0,0,1-1.175-3.643c-2.481,3.7-4.63,7.681-7.516,11.022a8.586,8.586,0,0,1-12.7.792c-4.23-3.912-4.3-9.657.383-13.638C-2475.782,20.942-2471.88,18.87-2468.751,16.8ZM-2796.33,157.229c5.134,3.027,10.037,5.171,15.455,5.886,3.652.481,6.1-1.853,6.216-5.7.113-3.79-2.339-6.549-5.823-6.157C-2786.09,151.884-2791.158,154.092-2796.33,157.229Zm196.344,196.389c3.154-5.269,5.362-10.3,5.97-15.911.371-3.426-2.035-5.749-5.8-5.866s-6.558,2.347-6.167,5.81C-2605.354,343.241-2603.18,348.313-2599.985,353.617Zm138.92-57.454c-1.59-5.883-3.377-10.937-6.8-15.2-2.556-3.183-5.861-3.111-8.753-.08-2.782,2.915-2.69,6.089.473,8.554C-2471.853,292.784-2466.832,294.561-2461.065,296.163Zm57.345-139c-5.271-3.116-10.409-5.38-16.123-5.892-3.168-.284-5.333,2.216-5.458,5.7-.13,3.607,2,6.405,5.228,6.171C-2414.262,162.726-2409.017,160.5-2403.72,157.164Zm-335.2,138.988c5.847-1.583,10.881-3.428,15.161-6.808,3.2-2.525,3.1-5.873.054-8.8-2.832-2.716-6.184-2.574-8.6.6C-2735.554,285.42-2737.356,290.377-2738.922,296.152Zm138.855-335.219c-2.93,5.161-5.266,10.175-5.849,15.8-.355,3.44,2.236,5.826,5.926,5.8,3.8-.03,6.2-2.3,5.858-5.784C-2594.693-28.9-2596.931-33.936-2600.068-39.067Zm-138.685,57.5c1.457,5.853,3.416,10.839,6.809,15.121,2.379,3,5.48,2.915,8.334.042s2.941-5.938-.059-8.344C-2727.935,21.825-2732.964,19.977-2738.752,18.429Zm277.528.018c-5.916,1.649-11.228,3.405-15.511,7.244-2.569,2.3-2.262,5.366.424,8,2.669,2.613,5.71,2.819,7.993.154C-2464.648,29.554-2462.786,24.364-2461.224,18.447Z" transform="translate(2818.911 61.767)" fill="#fff"/><path d="M-2543.2,59.474c84.3-.341,152.758,68.153,153.553,151.732.817,85.96-69.367,154.985-153.708,154.916-84.651-.069-155.585-69.88-153.5-157.244C-2694.9,126.732-2627.158,59.165-2543.2,59.474Zm150.119,152.865A150.011,150.011,0,0,0-2544.112,62.99c-83.078.4-150.047,68.269-149.281,150.823A149.766,149.766,0,0,0-2542.362,362.62,149.9,149.9,0,0,0-2393.082,212.339Z" transform="translate(2762.723 5.934)" fill="#fff"/><path d="M-2217.913,605.032a6.533,6.533,0,0,1-6.58-6.4,6.5,6.5,0,0,1,6.8-6.706,6.411,6.411,0,0,1,6.46,6.462A6.723,6.723,0,0,1-2217.913,605.032Zm.107-3.534a3.041,3.041,0,0,0,3-3.281,3.075,3.075,0,0,0-3.425-3.247,3.006,3.006,0,0,0-3.138,3.264A3.2,3.2,0,0,0-2217.806,601.5Z" transform="translate(2545.171 -239.269)" fill="#fff"/><path d="M-2152.293,539.283a6.606,6.606,0,0,1-6.574,6.724,6.536,6.536,0,0,1-6.559-6.438,6.6,6.6,0,0,1,6.723-6.856A6.483,6.483,0,0,1-2152.293,539.283Zm-6.864,3.186c1.928-.14,3.17-1.051,3.332-3.088a3.083,3.083,0,0,0-3.149-3.5c-1.978.006-3.21.975-3.335,3.029C-2162.443,541.093-2161.235,542.159-2159.157,542.469Z" transform="translate(2517.969 -212.002)" fill="#fff"/><path d="M-2135.956,508.133a5.657,5.657,0,0,1-5.506,5.766,5.722,5.722,0,0,1-5.753-5.558,5.685,5.685,0,0,1,5.59-5.7A5.369,5.369,0,0,1-2135.956,508.133Zm-5.936-3.422c-1.027,1.572-2.175,2.585-2,3.242a3.539,3.539,0,0,0,2.33,2.152c.569.108,2.041-1.345,2.009-2.048C-2139.593,507.143-2140.723,506.278-2141.892,504.711Z" transform="translate(2509.582 -198.151)" fill="#fff"/><path d="M-2248.94,621.268a5.321,5.321,0,0,1-5.6-5.5,5.677,5.677,0,0,1,5.523-5.734,5.724,5.724,0,0,1,5.677,5.6A5.591,5.591,0,0,1-2248.94,621.268Zm-.306-9.129c-1.066,1.563-2.2,2.5-2.067,3.209.17.937,1.327,1.694,2.059,2.53.772-.778,2.076-1.5,2.167-2.351C-2247,614.7-2248.157,613.744-2249.246,612.139Z" transform="translate(2559.008 -247.61)" fill="#fff"/><path d="M-2671.993,539.38a6.609,6.609,0,0,1-6.675,6.635,6.575,6.575,0,0,1-6.478-6.815,6.483,6.483,0,0,1,6.512-6.481A6.619,6.619,0,0,1-2671.993,539.38Zm-6.736,3.039c2.31-.025,3.718-1.467,3.605-3.414a3.094,3.094,0,0,0-3.263-3.167,3.208,3.208,0,0,0-3.277,3.424A3.074,3.074,0,0,0-2678.729,542.418Z" transform="translate(2757.309 -212.004)" fill="#fff"/><path d="M-2619.9,604.969a6.582,6.582,0,0,1-6.365-6.648,6.571,6.571,0,0,1,6.424-6.558,6.677,6.677,0,0,1,6.816,6.789A6.6,6.6,0,0,1-2619.9,604.969Zm3.742-6.485c-.051-2.312-1.127-3.53-3.282-3.591-2.068-.059-3.114,1.191-3.313,3.116a3.11,3.11,0,0,0,3.271,3.392A3.028,3.028,0,0,0-2616.155,598.484Z" transform="translate(2730.193 -239.196)" fill="#fff"/><path d="M-2699.876,508.17a5.364,5.364,0,0,1,5.632-5.521,5.481,5.481,0,0,1,5.555,5.662,5.6,5.6,0,0,1-5.673,5.589A5.565,5.565,0,0,1-2699.876,508.17Zm5.919-3.4c-1.145,1.51-2.378,2.432-2.3,3.225.082.833,1.419,1.543,2.208,2.308.768-.8,1.952-1.507,2.163-2.434C-2691.736,507.212-2692.906,506.256-2693.957,504.768Z" transform="translate(2764.093 -198.157)" fill="#fff"/><path d="M-2586.934,610.223a5.463,5.463,0,0,1,5.7,5.756,5.38,5.38,0,0,1-5.779,5.371,5.581,5.581,0,0,1-5.484-5.736A5.539,5.539,0,0,1-2586.934,610.223Zm3.569,5.323c-1.452-1.081-2.379-2.279-3.057-2.152-.931.175-2.292,1.328-2.325,2.11a3.12,3.12,0,0,0,2.082,2.319C-2585.854,617.915-2584.894,616.671-2583.365,615.546Z" transform="translate(2714.645 -247.697)" fill="#fff"/><path d="M-2467.069,664.123a6.633,6.633,0,0,1,6.63-6.431,6.58,6.58,0,0,1,6.543,6.739,6.5,6.5,0,0,1-6.866,6.422A6.619,6.619,0,0,1-2467.069,664.123Zm6.391,3.261a3.366,3.366,0,0,0,3.506-3.175,3.3,3.3,0,0,0-3.321-3.5,3.026,3.026,0,0,0-3.168,3.289A3.09,3.09,0,0,0-2460.679,667.384Z" transform="translate(2656.882 -269.556)" fill="#fff"/><path d="M-2377.238,670.814a6.354,6.354,0,0,1-6.363-6.843,6.727,6.727,0,0,1,6.8-6.268,6.56,6.56,0,0,1,6.335,6.932A6.451,6.451,0,0,1-2377.238,670.814Zm.833-3.44c1.389-.12,2.517-1.2,2.561-3.174.042-1.927-.879-3.336-2.917-3.46-2.132-.13-3.294,1.191-3.553,3.195C-2380.547,665.729-2378.946,667.292-2376.4,667.374Z" transform="translate(2618.445 -269.562)" fill="#fff"/><path d="M-2493.749,648.644a5.615,5.615,0,0,1,5.444,5.817,5.913,5.913,0,0,1-5.625,5.463,5.791,5.791,0,0,1-5.683-5.924A5.579,5.579,0,0,1-2493.749,648.644Zm-.338,8.7c1.146-1.584,2.373-2.546,2.269-3.33-.121-.906-1.415-1.656-2.2-2.473-.753.842-1.923,1.6-2.119,2.553C-2496.28,654.795-2495.146,655.758-2494.087,657.344Z" transform="translate(2671.869 -265.389)" fill="#fff"/><path d="M-2342.356,659.918a5.875,5.875,0,0,1-5.215-6.11,5.692,5.692,0,0,1,6.069-5.157,5.609,5.609,0,0,1,5.232,6.006A5.9,5.9,0,0,1-2342.356,659.918Zm.413-9.447c-1.083,1.674-2.149,2.613-2.152,3.554,0,.742,1.418,2.169,2.011,2.074a3.3,3.3,0,0,0,2.353-2.087C-2339.643,653.146-2340.823,652.151-2341.943,650.471Z" transform="translate(2601.856 -265.387)" fill="#fff"/><path d="M-2744.481,290.116a6.637,6.637,0,0,1,6.531,6.5,6.735,6.735,0,0,1-6.542,6.78,6.6,6.6,0,0,1-6.792-6.767A6.793,6.793,0,0,1-2744.481,290.116Zm-.117,3.473c-1.9.255-3.151,1.242-3.024,3.323a3.02,3.02,0,0,0,3.38,3.05,2.987,2.987,0,0,0,3.1-3.335C-2741.253,294.542-2742.577,293.681-2744.6,293.589Z" transform="translate(2787.768 -100.281)" fill="#fff"/><path d="M-2744.723,386.83a6.594,6.594,0,0,1-6.388-6.618,6.514,6.514,0,0,1,6.917-6.624,6.721,6.721,0,0,1,6.308,6.73A6.777,6.777,0,0,1-2744.723,386.83Zm3.678-6.205c.035-2.342-1.142-3.4-3.032-3.656a3.177,3.177,0,0,0-3.49,3.2,2.973,2.973,0,0,0,3.184,3.176A2.955,2.955,0,0,0-2741.045,380.625Z" transform="translate(2787.688 -138.721)" fill="#fff"/><path d="M-2732.942,257.54a5.611,5.611,0,0,1,5.731,5.556,5.788,5.788,0,0,1-5.76,5.871,5.789,5.789,0,0,1-5.656-5.719A5.861,5.861,0,0,1-2732.942,257.54Zm.255,8.877c1.079-1.411,2.345-2.386,2.2-3.039-.212-.932-1.461-1.628-2.267-2.424-.706.771-1.907,1.5-1.975,2.326C-2734.8,264.074-2733.695,264.965-2732.687,266.417Z" transform="translate(2781.938 -85.28)" fill="#fff"/><path d="M-2732.874,420.969a5.762,5.762,0,0,1-5.725-5.866,5.9,5.9,0,0,1,5.859-5.5,5.678,5.678,0,0,1,5.5,5.772A5.591,5.591,0,0,1-2732.874,420.969Zm.179-8.947c-1.042,1.527-2.214,2.511-2.061,3.2.205.921,1.438,1.614,2.229,2.4.75-.751,2.1-1.507,2.095-2.253C-2730.438,414.464-2731.584,413.562-2732.7,412.022Z" transform="translate(2781.927 -155.308)" fill="#fff"/><path d="M-2093.167,303.35a6.572,6.572,0,0,1-6.471-6.787,6.7,6.7,0,0,1,6.565-6.509,6.779,6.779,0,0,1,6.757,6.594A6.566,6.566,0,0,1-2093.167,303.35Zm0-9.787c-2.2.149-3.361,1.265-3.317,3.262a3.028,3.028,0,0,0,3.335,3.112A3.024,3.024,0,0,0-2090,296.65,3,3,0,0,0-2093.168,293.563Z" transform="translate(2487.672 -100.253)" fill="#fff"/><path d="M-2093,373.59a6.507,6.507,0,0,1,6.64,6.64,6.723,6.723,0,0,1-6.718,6.641,6.694,6.694,0,0,1-6.534-6.541A6.709,6.709,0,0,1-2093,373.59Zm3.061,6.829c-.125-2.062-1.139-3.262-3.105-3.449a3.24,3.24,0,0,0-3.466,3.258,2.971,2.971,0,0,0,3.248,3.123A2.953,2.953,0,0,0-2089.94,380.419Z" transform="translate(2487.66 -138.723)" fill="#fff"/><path d="M-2097.329,263.209a5.9,5.9,0,0,1-5.643,5.75,5.647,5.647,0,0,1-5.73-5.572,5.667,5.667,0,0,1,5.7-5.862A5.8,5.8,0,0,1-2097.329,263.209Zm-2.8-.015c-1.428-1.043-2.368-2.232-3.036-2.1-.948.193-1.7,1.364-2.528,2.118.836.758,1.585,1.931,2.539,2.132C-2102.5,265.486-2101.563,264.272-2100.13,263.195Z" transform="translate(2491.847 -85.273)" fill="#fff"/><path d="M-2108.626,415.33a5.613,5.613,0,0,1,5.519-5.715,5.842,5.842,0,0,1,5.815,5.523,5.864,5.864,0,0,1-5.776,5.857A5.533,5.533,0,0,1-2108.626,415.33Zm5.442-3.3c-1.154,1.556-2.323,2.448-2.318,3.332,0,.755,1.459,2.182,2.091,2.088a3.411,3.411,0,0,0,2.249-2.21C-2101,414.56-2102.151,413.575-2103.184,412.029Z" transform="translate(2491.811 -155.313)" fill="#fff"/><path d="M-2453.879,12.7a6.679,6.679,0,0,1-6.705,6.636,6.7,6.7,0,0,1-6.611-6.751,6.787,6.787,0,0,1,6.463-6.626A6.561,6.561,0,0,1-2453.879,12.7Zm-6.037-3.376c-2.652.671-3.881,1.645-3.712,3.708.16,1.956,1.2,3.194,3.273,3.062,2.026-.128,3.284-1.587,2.95-3.362C-2457.654,11.41-2459.135,10.322-2459.916,9.322Z" transform="translate(2656.939 30.579)" fill="#fff"/><path d="M-2383.707,12.888A6.567,6.567,0,0,1-2377,6.025a6.646,6.646,0,0,1,6.592,6.452,6.738,6.738,0,0,1-6.732,6.9A6.688,6.688,0,0,1-2383.707,12.888Zm7.05,3.224a2.861,2.861,0,0,0,2.688-3.351,2.893,2.893,0,0,0-3.277-3.064,2.943,2.943,0,0,0-3,3.367C-2380.133,14.953-2379.015,16.16-2376.657,16.113Z" transform="translate(2618.491 30.548)" fill="#fff"/><path d="M-2336.252,24.263a5.615,5.615,0,0,1-5.765,5.76,5.669,5.669,0,0,1-5.675-5.6,5.891,5.891,0,0,1,5.5-5.852A5.879,5.879,0,0,1-2336.252,24.263Zm-2.578.477c-1.354-1.074-2.166-2.221-2.96-2.208s-1.595,1.169-2.391,1.824c.729.835,1.337,2.12,2.226,2.357C-2341.295,26.888-2340.273,25.706-2338.83,24.74Z" transform="translate(2601.906 24.77)" fill="#fff"/><path d="M-2499.739,24.465a5.767,5.767,0,0,1,5.8-5.785,5.727,5.727,0,0,1,5.656,5.65,5.753,5.753,0,0,1-5.826,5.769A5.631,5.631,0,0,1-2499.739,24.465Zm8.855.194c-1.423-1.029-2.385-2.232-3.057-2.088-.9.193-1.576,1.43-2.348,2.219.776.713,1.512,1.927,2.342,1.994C-2493.169,26.849-2492.293,25.7-2490.885,24.66Z" transform="translate(2671.926 24.72)" fill="#fff"/><path d="M-2613.028,78.537a6.777,6.777,0,0,1-7.132,6.777,6.635,6.635,0,0,1-6.25-6.762,6.612,6.612,0,0,1,6.7-6.574A6.484,6.484,0,0,1-2613.028,78.537Zm-6.511,3.5c1.869-.214,3.2-1.029,3.211-3.16a2.945,2.945,0,0,0-3.155-3.226,2.889,2.889,0,0,0-3.249,3.115C-2622.759,80.746-2621.609,81.877-2619.539,82.036Z" transform="translate(2730.26 0.175)" fill="#fff"/><path d="M-2685.293,137.305a6.647,6.647,0,0,1,6.629-6.462,6.631,6.631,0,0,1,6.692,6.653,6.718,6.718,0,0,1-6.662,6.753A6.594,6.594,0,0,1-2685.293,137.305Zm10.051.214a3,3,0,0,0-3.4-2.986,2.888,2.888,0,0,0-3.008,3.1,3.116,3.116,0,0,0,3.386,3.319C-2676.14,140.823-2675.388,139.449-2675.242,137.52Z" transform="translate(2757.377 -26.933)" fill="#fff"/><path d="M-2694.639,175.992a5.323,5.323,0,0,1-5.353-5.74,5.686,5.686,0,0,1,5.634-5.62,5.8,5.8,0,0,1,5.73,5.858A5.585,5.585,0,0,1-2694.639,175.992Zm3.853-5.459c-1.7-1.035-2.63-2-3.607-2.05-.638-.035-2.041,1.564-1.9,1.881A4.152,4.152,0,0,0-2694,172.63C-2693.34,172.787-2692.365,171.622-2690.786,170.533Z" transform="translate(2764.147 -42.494)" fill="#fff"/><path d="M-2581.26,62.681a5.638,5.638,0,0,1-5.841,5.972,5.85,5.85,0,0,1-5.533-5.806,5.708,5.708,0,0,1,5.675-5.594A5.335,5.335,0,0,1-2581.26,62.681Zm-2.229.395c-1.611-1.038-2.509-2.021-3.472-2.09-.607-.044-1.994,1.532-1.842,1.935a4.111,4.111,0,0,0,2.252,2.348C-2585.972,65.439-2584.975,64.193-2583.489,63.076Z" transform="translate(2714.706 6.957)" fill="#fff"/><path d="M-2217.809,85.326a6.72,6.72,0,0,1-6.822-6.787A6.535,6.535,0,0,1-2218.187,72a6.609,6.609,0,0,1,6.989,6.574A6.743,6.743,0,0,1-2217.809,85.326Zm-.21-9.71c-2.1.068-3.3,1.167-3.339,3.133a2.937,2.937,0,0,0,3.135,3.243,2.889,2.889,0,0,0,3.258-3.089C-2214.89,76.88-2216.122,75.845-2218.019,75.616Z" transform="translate(2545.234 0.168)" fill="#fff"/><path d="M-2159.011,144.24a6.645,6.645,0,0,1-6.573-7.053,6.573,6.573,0,0,1,6.488-6.282,6.611,6.611,0,0,1,6.841,6.493A6.616,6.616,0,0,1-2159.011,144.24Zm3.1-6.617a3.037,3.037,0,0,0-3.359-3.04,2.849,2.849,0,0,0-3.057,3.275,2.955,2.955,0,0,0,3.29,3.1C-2156.97,140.915-2156.081,139.593-2155.913,137.623Z" transform="translate(2518.042 -26.962)" fill="#fff"/><path d="M-2135.967,170.384a5.374,5.374,0,0,1-5.494,5.638,5.622,5.622,0,0,1-5.826-5.947,5.745,5.745,0,0,1,5.575-5.429A5.583,5.583,0,0,1-2135.967,170.384Zm-2.407.142c-1.634-1.053-2.64-2.194-3.337-2.028a3.987,3.987,0,0,0-2.193,2.327c-.135.34,1.31,1.876,1.957,1.828C-2140.972,172.581-2140.063,171.6-2138.374,170.525Z" transform="translate(2509.616 -42.5)" fill="#fff"/><path d="M-2254.673,62.862a5.34,5.34,0,0,1,5.537-5.563,5.615,5.615,0,0,1,5.823,5.681,5.719,5.719,0,0,1-5.635,5.626A5.515,5.515,0,0,1-2254.673,62.862Zm8.719.227c-1.573-1.061-2.485-2.158-3.249-2.064a3,3,0,0,0-2.083,2.069c-.042.744,1.192,2.184,1.875,2.19C-2248.507,65.293-2247.594,64.2-2245.954,63.089Z" transform="translate(2559.068 6.935)" fill="#fff"/></g></g></svg>