<svg xmlns="http://www.w3.org/2000/svg" width="1700" height="768" viewBox="0 0 1700 768"><g transform="translate(-4794 -5070)"><path d="M0,0H1700V768H0Z" transform="translate(4794 5070)" fill="#ecf5f5" opacity="0.918"/><g transform="translate(8222.91 5274.768)" opacity="0.1"><g transform="translate(-2818.911 -61.767)"><path d="M-2654.845,363.571c-10.406,7.29-21.165,5.441-31.629,1.512-9.12-3.424-17.836-7.922-26.754-11.89-7.347-3.269-14.923-5.842-23.075-5.673-3.214.067-6.418.905-9.614,1.467-2.553.449-3.4-.125-2.676-2.5,3.444-11.327.559-21.85-3.942-32.146-3.792-8.674-8.048-17.153-11.595-25.923a56.938,56.938,0,0,1-3.521-13.969c-.868-6.742-.266-13.418,4.629-19.1-10.96-1.639-17.338-8.786-21.568-17.572-4.689-9.74-8.178-20.059-12.165-30.136-3.213-8.122-6.842-16.017-13.493-21.982a60.022,60.022,0,0,0-7.244-5.083c-1.681-1.107-2.021-2.414-.195-3.379,12.03-6.352,17.238-17.631,21.786-29.513,3.661-9.565,7.142-19.254,11.679-28.4,2.366-4.773,6.472-8.906,10.493-12.555,2.615-2.374,6.493-3.357,9.805-4.963l.346.69c.031-.181.155-.431.079-.534-5.985-8.149-5.643-17.291-2.771-26.073,3.051-9.331,7.389-18.252,11.357-27.267,3.864-8.779,7.844-17.527,7.7-27.365-.047-3.31-.925-6.613-1.488-9.908-.454-2.658.191-3.5,2.741-2.735,10.774,3.235,20.9.832,30.766-3.454,8.868-3.852,17.521-8.214,26.477-11.839a59.414,59.414,0,0,1,14.551-3.752c6.727-.867,13.451-.38,19.118,4.567,2.271-13,11.673-19.092,22.053-23.841,7.875-3.6,16.281-6.03,24.281-9.383a147.343,147.343,0,0,0,16.9-8.386,30.509,30.509,0,0,0,11.465-12.523c.926-1.749,2.393-2.589,3.508-.49,6.547,12.321,18.149,17.563,30.341,22.077,7.58,2.806,15.222,5.481,22.648,8.653,7.045,3.01,13.564,7.06,17.912,13.616,1.912,2.882,3.068,6.264,4.581,9.449,2.075-.9,4.693-2.5,7.532-3.184,8.676-2.09,17.118-.37,25.146,2.916,8.757,3.584,17.258,7.79,25.907,11.64,7.261,3.232,14.776,5.651,22.831,5.37a63.044,63.044,0,0,0,9.011-1.5c2.629-.482,3.59.242,2.818,2.723-3.6,11.562-.392,22.213,4.19,32.673,3.917,8.942,8.263,17.7,11.9,26.755,3.088,7.689,4.474,15.807,2.243,24.05-.7,2.6-2.184,4.992-3.334,7.537,12.81,2.339,18.866,12.145,23.7,22.8,3.494,7.708,5.987,15.867,8.993,23.8,3.305,8.723,7.083,17.2,14.351,23.48a63.44,63.44,0,0,0,6.525,4.561c2.053,1.364,2.2,2.55.123,3.671-10.4,5.616-15.823,15.089-19.982,25.557-4.148,10.441-7.924,21.046-12.521,31.285a31.4,31.4,0,0,1-14.109,15.5,61.487,61.487,0,0,1-7.313,2.695c.585.981,1.388,2.18,2.045,3.454,3.368,6.53,2.838,13.387,1.444,20.234-2.133,10.47-7.348,19.729-11.818,29.272-4.2,8.971-8.172,18.038-8,28.2.054,3.207.93,6.407,1.512,9.6.44,2.41-.3,3.382-2.6,2.659-11.109-3.5-21.468-.664-31.594,3.7-9.054,3.9-17.883,8.341-27.01,12.053-7.746,3.15-15.914,4.829-24.283,2.735-2.878-.72-5.532-2.337-8.3-3.548-1.633,10.611-8.985,17.028-17.984,21.288-10.04,4.754-20.645,8.311-30.99,12.424-10.55,4.2-20.166,9.6-25.78,20.133-.97,1.82-2.3,2.057-3.285.185-5.835-11.108-16.015-16.525-27.063-20.779-8.282-3.189-16.8-5.841-24.881-9.458a74.91,74.91,0,0,1-14.472-9.055C-2651.495,374.805-2653.769,370.073-2654.845,363.571Zm76.589-4.178c98.9.127,180.017-80.064,180.414-179.862S-2477.981.406-2573.962-1.685c-103.234-2.249-184.93,80.894-185.068,180.326C-2759.166,277.44-2678.694,359.643-2578.255,359.393Zm85.765-17.826c-3.1,1.467-6.137,2.827-9.082,4.354a3.4,3.4,0,0,0-1.239,1.913c-2.356,7.291,1.563,14.335,9.044,16.278,9.185,2.386,17.831.122,26.205-3.409,7.45-3.142,14.709-6.736,22.1-10.025,9.19-4.091,18.619-7.169,28.91-6.086,1.414.149,2.828.29,4.548.466-2.7-13.945,1.955-26.023,7.552-37.93,2.938-6.25,5.892-12.506,8.494-18.9,3.28-8.062,5.18-16.381,2.764-25.114a12.165,12.165,0,0,0-15.075-8.9c-1.017.244-2.429.552-2.844,1.29-1.663,2.95-3.006,6.082-4.56,9.342,1.2.1,1.984.151,2.762.245,6.467.788,10.024,3.691,10.424,9.3a22.061,22.061,0,0,1-1.1,9c-2.535,6.829-5.458,13.529-8.533,20.138-4.456,9.58-9.325,18.987-9.523,29.907-.035,1.927-1.365,1.923-2.836,2.179-4.642.807-9.471,1.243-13.814,2.905-7.626,2.92-14.92,6.7-22.4,10.011-6.215,2.753-12.359,5.787-19.294,6.359-6.374.526-10.4-2.477-11.711-8.7C-2492,344.749-2492.2,343.3-2492.491,341.567Zm-140.267,13.09c-3.252-1.126-6.288-2.237-9.371-3.2a3.5,3.5,0,0,0-2.223.274,12.357,12.357,0,0,0-6.771,13.99c1.013,4.213,3.551,7.419,6.611,10.3,5.948,5.6,13.207,8.9,20.7,11.777,8.286,3.176,16.684,6.086,24.834,9.574,8.274,3.541,15.462,8.7,20.55,16.843,6.96-10.9,17.561-16.049,28.732-20.336,7.458-2.862,15.026-5.45,22.417-8.472,7.19-2.94,13.739-6.973,18.544-13.288,5.52-7.256,4.288-15.605-2.917-19.955a4.324,4.324,0,0,0-2.957-.7c-3.114.869-6.143,2.042-9.482,3.2.709.906,1.242,1.582,1.769,2.263,4.8,6.211,4,12.222-2.329,16.857a25.227,25.227,0,0,1-5.015,3.094c-6.459,2.692-12.937,5.363-19.516,7.74-9.571,3.458-19.295,6.573-26.96,13.7-1.823,1.7-2.945,1.2-4.766-.117-4.049-2.939-8.146-6.017-12.668-8.051-6.816-3.067-14.1-5.075-21.019-7.938-5.988-2.479-12.064-5.011-17.516-8.447-6.547-4.127-7.153-10.282-2.62-16.539C-2634.153,356.439-2633.541,355.678-2632.758,354.657Zm-111.977-9.421c13.88-2.742,25.782,1.837,37.539,7.256,7.158,3.3,14.277,6.73,21.621,9.561,7.534,2.9,15.4,4.3,23.42,1.761a12.026,12.026,0,0,0,7.641-6.512c1.625-3.473,1.676-9.609-.406-10.962a100.919,100.919,0,0,0-9.546-4.915c-.09,1.374-.112,2.154-.2,2.928-.733,6.754-4.5,10.572-10.809,10.624a17.037,17.037,0,0,1-6.388-1c-8.207-3.318-16.371-6.757-24.433-10.412-7.1-3.219-14.122-6.57-21.98-7.545-2.043-.254-4.805.174-5.929-.982-1.222-1.258-.973-3.989-1.274-6.09-1.382-9.641-5.748-18.166-9.922-26.771-3.742-7.716-7.713-15.357-9-23.994-1.018-6.849,2.044-11.306,8.758-12.774,1.389-.3,2.807-.476,4.469-.752-1.5-3.107-2.8-5.967-4.283-8.727a3.752,3.752,0,0,0-2.026-1.485c-6.7-2.227-14.018,1.216-15.872,7.935a35.08,35.08,0,0,0-1.057,11.087c.528,9.559,4.735,18.015,8.644,26.544,3.037,6.626,6.084,13.263,8.728,20.05A46,46,0,0,1-2744.734,345.236Zm-9.375-221.015c.715-2.16,1.356-4.221,2.077-6.253,1.484-4.181,1.107-6.114-2.3-9-3.929-3.327-8.335-4.3-13.21-2.1-7.366,3.322-11.922,9.434-15.216,16.36s-5.914,14.187-8.582,21.393c-4.823,13.03-9.751,25.942-22.331,34.224,9.81,6.257,15.046,15.577,19.051,25.719,2.753,6.973,5.1,14.1,7.814,21.093,3.455,8.912,7.688,17.371,15.7,23.2,7.107,5.168,15.109,3.714,19.394-3.45.433-.724,1-1.732.805-2.406-.943-3.259-2.125-6.45-3.309-9.916-.771.653-1.205,1.036-1.655,1.4-6.642,5.345-12.722,4.611-17.825-2.173a12.825,12.825,0,0,1-1.759-2.729c-3.414-8.394-6.928-16.752-10.085-25.243-3.179-8.551-6.456-16.986-12.87-23.756-1.314-1.387-.8-2.469.24-3.858,2.479-3.3,5.284-6.522,6.936-10.23,3.4-7.644,5.958-15.662,9.211-23.378a157.406,157.406,0,0,1,8.81-18.333c2.768-4.739,8.025-6.39,12.267-4.628C-2758.615,121.124-2756.557,122.737-2754.109,124.221Zm89.861-108.234c3.152-1.53,5.989-2.86,8.771-4.3a3.133,3.133,0,0,0,1.308-1.5c2.437-5.887-.631-13.755-6.693-15.721a35.461,35.461,0,0,0-11.871-1.6c-8.641.279-16.368,4-24.162,7.379-9.12,3.956-18.24,7.946-27.549,11.417-6.351,2.368-13.14,1.939-20.188,1.017,2.738,14.7-2.576,27.384-8.621,39.923-2.356,4.885-4.645,9.811-6.741,14.812-3.23,7.705-5.533,15.615-4.246,24.14,1.394,9.226,8.267,14.065,16.6,11.633.627-.183,1.471-.446,1.73-.931,1.609-3,3.08-6.084,4.678-9.3-1.878-.3-3.338-.457-4.761-.775-6.249-1.4-9.39-5.773-8.5-12.159a37.862,37.862,0,0,1,1.977-8.318c1.975-5.146,4.171-10.221,6.541-15.2,4.958-10.418,10.507-20.6,10.875-32.572.021-.666,1.457-1.662,2.371-1.854,2.5-.526,5.1-.53,7.6-1.051,9.38-1.956,17.655-6.666,26.212-10.68,6.957-3.263,13.862-6.706,21.653-7.659,6.325-.773,10.823,2.266,12.262,8.459C-2664.675,12.572-2664.546,14.045-2664.249,15.986Zm261.636,217.221c-1.11,3.2-2.156,6.067-3.072,8.973a3.623,3.623,0,0,0,.06,2.241,12.333,12.333,0,0,0,13.815,7.159c7.058-1.692,11.367-6.84,15.135-12.5,5.65-8.48,8.388-18.243,11.846-27.678,4.586-12.509,9.616-24.714,21.631-32.609-11.946-7.848-17.061-19.9-21.56-32.36-1.942-5.38-3.825-10.787-5.963-16.091-3.237-8.031-7.272-15.582-14.332-21.024-7.276-5.608-15.923-4.3-20.052,3.023a3.835,3.835,0,0,0-.738,2.436c.945,3.17,2.13,6.268,3.3,9.584.659-.5,1.048-.794,1.433-1.091,7.462-5.764,13.856-5.115,18.55,3.021,3.808,6.6,6.578,13.865,9.267,21.038,3.946,10.531,7.026,21.417,14.982,29.956.538.577.282,2.715-.369,3.449-4.938,5.569-8.228,12.036-10.8,18.92-3,8.035-5.742,16.178-9.015,24.1a42.516,42.516,0,0,1-6.185,10.343c-3.753,4.641-8.659,5.14-13.762,2.049C-2399.788,235.341-2401.016,234.345-2402.612,233.207Zm-89.865-217.175c.144-1.371.206-2.331.35-3.278,1.169-7.679,5.871-11.161,13.558-9.9a31.03,31.03,0,0,1,7.14,1.812c7.884,3.369,15.7,6.9,23.487,10.491,7.655,3.525,15.427,6.572,23.995,6.83,1.779.054,2.32.914,2.43,2.6.166,2.549.15,5.249,1.016,7.586,2.975,8.017,6.113,15.986,9.546,23.817,3.36,7.666,7.385,15.048,8.641,23.487,1,6.725-2.1,11.329-8.785,12.784-1.312.286-2.655.43-4.441.712,1.6,3.229,3.017,6.215,4.571,9.129a3.057,3.057,0,0,0,1.693,1.069,12.187,12.187,0,0,0,15.757-8.108c2.491-7.92,1.3-15.716-1.655-23.141-3.5-8.777-7.676-17.282-11.476-25.941-4-9.111-7.048-18.447-6.11-28.621.139-1.508.291-3.014.449-4.654-1.849.191-3.3.365-4.761.49-10.383.894-19.831-2.389-29.139-6.431-9.847-4.276-19.635-8.73-29.675-12.5a29.087,29.087,0,0,0-18.062-.651,12.343,12.343,0,0,0-9.026,15.027c.251,1,.595,2.348,1.335,2.777C-2498.776,13.075-2495.736,14.427-2492.478,16.032Zm-31.386-13.046c3.163,1.1,6.021,2.139,8.919,3.052a3.525,3.525,0,0,0,2.224-.076,12.418,12.418,0,0,0,6.655-15.318c-1.884-5.121-5.569-8.767-9.828-11.932-8.225-6.112-17.878-9.109-27.345-12.509-13.35-4.794-26.647-9.674-34.9-22.132-2.941,3.039-5.557,6.288-8.724,8.862a52.651,52.651,0,0,1-10.456,6.637c-5.33,2.54-10.948,4.472-16.428,6.7-7.3,2.969-14.751,5.623-21.815,9.072-6.258,3.055-11.627,7.468-14.669,14.093a12.368,12.368,0,0,0,6.039,16.469,3,3,0,0,0,1.936.308c3.127-1.022,6.211-2.174,9.38-3.307-1.041-1.426-1.978-2.569-2.762-3.809-3.188-5.04-2.637-10.089,1.883-14.04a29.22,29.22,0,0,1,7.4-4.8c6.14-2.675,12.4-5.109,18.71-7.354,9.874-3.512,19.795-6.822,27.709-14.2.582-.542,2.56-.206,3.489.368,2.337,1.443,4.228,3.753,6.685,4.833,8.916,3.919,18.06,7.318,26.982,11.222,6.47,2.831,13.09,5.591,18.975,9.411,5.617,3.646,6.034,9.088,2.512,14.79C-2522.01.493-2522.86,1.569-2523.864,2.987Zm90.272,329.744a23.652,23.652,0,0,1-3.3-1.573c-3.2-2.1-6.645-3.966-9.382-6.569a9.343,9.343,0,0,1-.018-13.747,9.49,9.49,0,0,1,13.583-.068,29.094,29.094,0,0,1,4.6,5.741c1.491,2.359,2.612,4.951,4.071,7.788,1.353-3.858,2.357-7.445,3.845-10.819,3.736-8.475,7.96-16.744,11.441-25.318a48.408,48.408,0,0,0,2.968-13.149c.364-3.55-1.963-5.517-6.021-6.47-4.96-1.165-5.347-1.025-7.653,2.874a186.762,186.762,0,0,1-22.931,31.158,186.5,186.5,0,0,1-44.564,35.749,4.594,4.594,0,0,0-2.093,1.9,8.516,8.516,0,0,0,9.55,11.212,51.1,51.1,0,0,0,10.766-3.057C-2456.983,343.336-2445.369,338-2433.592,332.731Zm-298.708-9.178a25.792,25.792,0,0,1,2.032-4.316c2.1-3.067,4.091-6.351,6.771-8.855,3.926-3.666,9.417-3.154,13.041.542a9.464,9.464,0,0,1,.334,13.321,23.25,23.25,0,0,1-4.935,4.191c-2.716,1.722-5.638,3.121-8.675,4.767.519.231.929.437,1.357.6,5.145,1.978,10.352,3.806,15.423,5.958,7.345,3.117,14.508,6.68,21.919,9.619a34.27,34.27,0,0,0,10.356,2.078c3.436.217,5.638-2.131,6.461-5.751,1.249-5.489.957-5.556-2.951-8.191-8.575-5.782-17.337-11.384-25.34-17.9a175.741,175.741,0,0,1-41.356-49.072c-.547-.948-1.387-2.169-2.3-2.393-6.895-1.688-12.261,3.365-10.721,10.237a71.7,71.7,0,0,0,3.951,12.673C-2742.228,301.985-2737.187,312.762-2732.3,323.553Zm160.974,66.235c8.741-3.291,18.349-6.723,27.8-10.538a110.961,110.961,0,0,0,15.933-7.667c6.481-3.919,6.71-7.971,1.832-13.814-1.317-1.577-2.464-2.08-4.517-1.5a177.38,177.38,0,0,1-44.354,6.4,184.407,184.407,0,0,1-51.766-6.271c-.916-.244-2.038-.644-2.813-.337-5.067,2.011-6.712,10.166-2.524,13.6a40.048,40.048,0,0,0,10.046,6.13c12.269,5,24.691,9.627,36.841,14.314a27.853,27.853,0,0,1-1.424-4.033,84.353,84.353,0,0,1-1.8-10.425,9.059,9.059,0,0,1,3.4-7.844c3.132-2.639,6.766-2.777,10.314-1.344a8.722,8.722,0,0,1,5.6,9.236C-2569.2,380.722-2570.538,385.669-2571.326,389.787Zm-218.8-204.012a74.69,74.69,0,0,1,3.4,6.853c3.329,8.645,6.222,17.469,9.833,25.991a73.987,73.987,0,0,0,7.926,13.749c2.175,3.064,5.659,3.083,9.043,1.05,4.365-2.624,4.828-3.634,3.675-7.937a180.865,180.865,0,0,1-6.061-42.661,179.99,179.99,0,0,1,6.2-51.214c.3-1.114.8-2.446.462-3.414-1.85-5.27-10.231-6.867-13.763-2.506a36.639,36.639,0,0,0-5.552,9.019c-5.106,12.546-9.9,25.222-14.489,37.041,4.032-.791,8.857-2.019,13.76-2.6a9.145,9.145,0,0,1,8.409,3.491,9.626,9.626,0,0,1,1.2,10.318,8.785,8.785,0,0,1-9.312,5.514C-2780.4,188.017-2785.326,186.693-2790.125,185.775Zm422.8-14.211c-2.374-5.946-5.2-12.735-7.8-19.608-3.065-8.1-5.422-16.506-10.332-23.806-4.285-6.371-8.257-6.831-14.082-1.781a3.839,3.839,0,0,0-1.387,4.268c2.118,11.006,4.631,21.993,5.79,33.113,2.166,20.785-.123,41.338-5.308,61.567-1.169,4.56-1.181,4.557,2.726,7.477,4,2.991,7.543,2.776,10.566-1.168a40.884,40.884,0,0,0,5.645-9.312c4.951-12.281,9.569-24.7,14.265-36.939a27.611,27.611,0,0,1-4.145,1.437c-3.551.708-7.147,1.693-10.719,1.673-5.874-.033-9.465-4.143-9.423-9.887.04-5.489,3.793-9.68,9.543-9.421C-2376.862,169.408-2371.789,170.8-2367.329,171.564ZM-2585.6-32.214c-6.51,2.556-13.866,5.368-21.159,8.332-6.837,2.778-13.733,5.466-20.347,8.714a17.493,17.493,0,0,0-6.535,6.08c-1.955,3.026.3,5.71,2.1,8.259,1.587,2.243,3.33,2.5,5.98,1.929,8.844-1.922,17.707-3.992,26.674-5.066A179.431,179.431,0,0,1-2532.531.69c5.272,1.351,5.708,1.2,8.608-3.274,2.3-3.539,2.058-6.827-1.264-9.449a38.76,38.76,0,0,0-8.981-5.6c-8.474-3.487-17.165-6.445-25.7-9.8-4.056-1.594-7.947-3.608-11.906-5.428.977,3.542,2.1,6.976,2.825,10.493a17.2,17.2,0,0,1,.143,6.161c-.939,5.641-4.963,8.552-10.8,8.142a8.878,8.878,0,0,1-8.453-9.63C-2587.782-22.808-2586.373-27.862-2585.6-32.214Zm-146.779,66.7c-4.5,9.844-9.424,19.924-13.7,30.274a90.429,90.429,0,0,0-4.917,17.224c-.685,3.521,1.935,6.173,5.42,7.007,5.286,1.264,6.1.955,8.42-3.107A172.869,172.869,0,0,1-2714,54.521a184.651,184.651,0,0,1,43.446-34.877c1.049-.607,2.413-1.436,2.717-2.439,1.95-6.429-3.307-12.456-9.793-10.863a126.737,126.737,0,0,0-16.747,5.683c-9.593,3.842-19.064,7.991-28.578,12.028-.2.085-.314.382-.556.695a14.745,14.745,0,0,1,2.284.972c3.619,2.345,7.489,4.415,10.717,7.219a8.854,8.854,0,0,1,2.4,10.313,9.381,9.381,0,0,1-8.188,6.4c-5.03.447-8.425-2.466-11.016-6.252C-2729.356,40.411-2730.917,37.092-2732.375,34.486Zm298.155-9.934c-6.485-2.815-13.384-5.937-20.384-8.815-7.728-3.177-15.4-6.6-23.372-9.039-7-2.14-10.591,1.034-11.136,8.384a3.989,3.989,0,0,0,2.063,4.091c9.128,6.194,18.518,12.1,27.073,19.019,16.724,13.533,30.182,30,40.966,48.63.594,1.028,1.507,2.346,2.5,2.591,6.8,1.673,12.235-3.681,10.41-10.44a132.2,132.2,0,0,0-5.433-15.9c-3.456-8.379-7.311-16.593-10.942-24.9a37.058,37.058,0,0,1-1.291-4c-2.726,4.068-5.087,8.438-8.258,12.109a9.432,9.432,0,0,1-13.954.87c-4.648-4.3-4.72-10.609.42-14.983C-2441.944,29.1-2437.657,26.822-2434.219,24.552ZM-2794.1,178.825c5.641,3.326,11.026,5.681,16.979,6.466,4.012.529,6.7-2.035,6.829-6.265.125-4.164-2.569-7.195-6.4-6.764C-2782.853,172.953-2788.421,175.379-2794.1,178.825ZM-2578.4,394.581c3.465-5.789,5.891-11.32,6.559-17.48.408-3.764-2.236-6.316-6.377-6.445s-7.2,2.578-6.774,6.383C-2584.293,383.181-2581.906,388.753-2578.4,394.581Zm152.62-63.12c-1.746-6.463-3.711-12.016-7.47-16.7-2.808-3.5-6.439-3.417-9.617-.088-3.057,3.2-2.955,6.69.52,9.4C-2437.627,327.748-2432.112,329.7-2425.775,331.461Zm63-152.706c-5.791-3.423-11.435-5.91-17.713-6.473-3.48-.312-5.858,2.435-6,6.266-.143,3.963,2.192,7.037,5.743,6.78C-2374.358,184.865-2368.6,182.422-2362.776,178.754Zm-368.259,152.694c6.424-1.74,11.954-3.767,16.656-7.48,3.513-2.774,3.406-6.453.059-9.663-3.112-2.984-6.794-2.828-9.444.656C-2727.334,319.658-2729.313,325.1-2731.035,331.448Zm152.548-368.277c-3.219,5.67-5.786,11.178-6.425,17.361-.391,3.78,2.456,6.4,6.509,6.368,4.181-.033,6.817-2.53,6.437-6.354C-2572.582-25.653-2575.041-31.192-2578.486-36.828Zm-152.361,63.166c1.6,6.43,3.753,11.908,7.48,16.612,2.614,3.3,6.021,3.2,9.156.046s3.23-6.523-.065-9.167C-2718.963,30.068-2724.489,28.038-2730.848,26.337Zm304.9.02c-6.5,1.812-12.336,3.741-17.041,7.958-2.822,2.529-2.485,5.9.465,8.784,2.932,2.871,6.274,3.1,8.781.169C-2429.712,38.56-2427.666,32.857-2425.951,26.358Z" transform="translate(2818.911 61.767)" fill="#00a9ad"/><path d="M-2528.043,59.474c92.611-.375,167.823,74.874,168.7,166.695.9,94.437-76.208,170.269-168.866,170.193-93-.075-170.928-76.771-168.638-172.751C-2694.7,133.365-2620.28,59.135-2528.043,59.474Zm164.923,167.939A164.8,164.8,0,0,0-2529.045,63.337c-91.271.436-164.844,75-164,165.7a164.534,164.534,0,0,0,165.925,163.481A164.685,164.685,0,0,0-2363.121,227.413Z" transform="translate(2769.214 12.384)" fill="#00a9ad"/><path d="M-2217.264,606.325a7.177,7.177,0,0,1-7.229-7.035,7.139,7.139,0,0,1,7.471-7.367,7.043,7.043,0,0,1,7.1,7.1A7.386,7.386,0,0,1-2217.264,606.325Zm.118-3.882a3.341,3.341,0,0,0,3.292-3.6,3.378,3.378,0,0,0-3.763-3.567,3.3,3.3,0,0,0-3.447,3.586A3.511,3.511,0,0,0-2217.146,602.443Z" transform="translate(2576.794 -204.492)" fill="#00a9ad"/><path d="M-2151,539.931a7.257,7.257,0,0,1-7.222,7.387,7.181,7.181,0,0,1-7.205-7.073,7.254,7.254,0,0,1,7.385-7.532A7.122,7.122,0,0,1-2151,539.931Zm-7.541,3.5c2.119-.154,3.482-1.155,3.66-3.393a3.387,3.387,0,0,0-3.459-3.848c-2.172.007-3.528,1.071-3.665,3.328C-2162.149,541.919-2160.822,543.091-2158.539,543.432Z" transform="translate(2552.735 -180.375)" fill="#00a9ad"/><path d="M-2134.846,508.675a6.214,6.214,0,0,1-6.049,6.335,6.287,6.287,0,0,1-6.32-6.106,6.246,6.246,0,0,1,6.142-6.264A5.9,5.9,0,0,1-2134.846,508.675Zm-6.521-3.76c-1.128,1.728-2.389,2.84-2.2,3.562a3.889,3.889,0,0,0,2.559,2.364c.625.119,2.242-1.478,2.207-2.25C-2138.841,507.587-2140.083,506.637-2141.367,504.915Z" transform="translate(2545.317 -168.124)" fill="#00a9ad"/><path d="M-2248.388,622.376a5.847,5.847,0,0,1-6.153-6.042,6.238,6.238,0,0,1,6.067-6.3,6.288,6.288,0,0,1,6.237,6.157A6.142,6.142,0,0,1-2248.388,622.376Zm-.336-10.029c-1.171,1.717-2.413,2.747-2.271,3.525.188,1.029,1.458,1.862,2.262,2.779.849-.855,2.281-1.648,2.38-2.582C-2246.256,615.162-2247.527,614.109-2248.724,612.346Z" transform="translate(2589.033 -211.869)" fill="#00a9ad"/><path d="M-2670.7,540.036a7.26,7.26,0,0,1-7.334,7.289,7.223,7.223,0,0,1-7.116-7.487,7.122,7.122,0,0,1,7.154-7.12A7.272,7.272,0,0,1-2670.7,540.036Zm-7.4,3.339c2.538-.028,4.085-1.612,3.961-3.75a3.4,3.4,0,0,0-3.584-3.48,3.525,3.525,0,0,0-3.6,3.762A3.376,3.376,0,0,0-2678.1,543.375Z" transform="translate(2764.426 -180.377)" fill="#00a9ad"/><path d="M-2619.27,606.271a7.231,7.231,0,0,1-6.992-7.3,7.219,7.219,0,0,1,7.057-7.205,7.335,7.335,0,0,1,7.488,7.458A7.245,7.245,0,0,1-2619.27,606.271Zm4.111-7.124c-.056-2.54-1.239-3.878-3.605-3.945-2.272-.065-3.421,1.308-3.64,3.423a3.416,3.416,0,0,0,3.594,3.727A3.326,3.326,0,0,0-2615.158,599.147Z" transform="translate(2740.441 -204.427)" fill="#00a9ad"/><path d="M-2699.876,508.715a5.893,5.893,0,0,1,6.187-6.065,6.021,6.021,0,0,1,6.1,6.221,6.154,6.154,0,0,1-6.232,6.14A6.113,6.113,0,0,1-2699.876,508.715Zm6.5-3.737c-1.258,1.659-2.613,2.672-2.527,3.543.09.916,1.559,1.7,2.426,2.535.844-.88,2.145-1.655,2.377-2.674C-2690.934,507.662-2692.219,506.612-2693.373,504.977Z" transform="translate(2770.426 -168.129)" fill="#00a9ad"/><path d="M-2586.385,610.223a6,6,0,0,1,6.259,6.323,5.912,5.912,0,0,1-6.35,5.9,6.13,6.13,0,0,1-6.024-6.3A6.085,6.085,0,0,1-2586.385,610.223Zm3.921,5.849c-1.6-1.187-2.613-2.5-3.358-2.364-1.023.193-2.518,1.459-2.554,2.318a3.428,3.428,0,0,0,2.288,2.548C-2585.2,618.674-2584.144,617.307-2582.464,616.071Z" transform="translate(2726.691 -211.946)" fill="#00a9ad"/><path d="M-2467.069,664.758a7.287,7.287,0,0,1,7.285-7.065,7.229,7.229,0,0,1,7.188,7.4,7.145,7.145,0,0,1-7.542,7.055A7.272,7.272,0,0,1-2467.069,664.758Zm7.021,3.582c2.3-.162,3.608-1.356,3.853-3.488a3.626,3.626,0,0,0-3.648-3.843,3.325,3.325,0,0,0-3.48,3.613A3.4,3.4,0,0,0-2460.049,668.34Z" transform="translate(2675.6 -231.28)" fill="#00a9ad"/><path d="M-2376.61,672.107a6.98,6.98,0,0,1-6.99-7.518,7.39,7.39,0,0,1,7.467-6.886,7.207,7.207,0,0,1,6.96,7.615A7.088,7.088,0,0,1-2376.61,672.107Zm.915-3.78c1.527-.132,2.765-1.313,2.813-3.487.047-2.117-.966-3.665-3.2-3.8-2.342-.143-3.619,1.309-3.9,3.51C-2380.245,666.52-2378.487,668.238-2375.695,668.328Z" transform="translate(2641.604 -231.286)" fill="#00a9ad"/><path d="M-2493.17,648.644a6.169,6.169,0,0,1,5.981,6.391,6.5,6.5,0,0,1-6.179,6,6.361,6.361,0,0,1-6.243-6.508A6.128,6.128,0,0,1-2493.17,648.644Zm-.371,9.559c1.258-1.74,2.606-2.8,2.492-3.659-.132-1-1.554-1.819-2.417-2.717-.827.925-2.113,1.755-2.327,2.8C-2495.951,655.4-2494.705,656.46-2493.542,658.2Z" transform="translate(2688.856 -227.595)" fill="#00a9ad"/><path d="M-2341.841,661.031a6.454,6.454,0,0,1-5.729-6.712,6.252,6.252,0,0,1,6.667-5.666,6.162,6.162,0,0,1,5.748,6.6A6.48,6.48,0,0,1-2341.841,661.031Zm.454-10.378c-1.189,1.839-2.361,2.871-2.363,3.9,0,.816,1.558,2.383,2.209,2.278,1.016-.163,2.494-1.393,2.585-2.293C-2338.86,653.591-2340.156,652.5-2341.387,650.652Z" transform="translate(2626.931 -227.592)" fill="#00a9ad"/><path d="M-2743.811,290.116a7.291,7.291,0,0,1,7.175,7.138,7.4,7.4,0,0,1-7.187,7.448,7.245,7.245,0,0,1-7.461-7.434A7.463,7.463,0,0,1-2743.811,290.116Zm-.128,3.816c-2.087.28-3.462,1.365-3.323,3.65a3.318,3.318,0,0,0,3.714,3.351,3.282,3.282,0,0,0,3.409-3.663C-2740.264,294.978-2741.719,294.033-2743.938,293.931Z" transform="translate(2791.365 -81.561)" fill="#00a9ad"/><path d="M-2744.093,388.136a7.245,7.245,0,0,1-7.018-7.27,7.157,7.157,0,0,1,7.6-7.278,7.385,7.385,0,0,1,6.931,7.394A7.447,7.447,0,0,1-2744.093,388.136Zm4.041-6.817c.039-2.573-1.254-3.733-3.33-4.017a3.49,3.49,0,0,0-3.834,3.512,3.266,3.266,0,0,0,3.5,3.489A3.246,3.246,0,0,0-2740.052,381.319Z" transform="translate(2791.295 -115.56)" fill="#00a9ad"/><path d="M-2732.382,257.54a6.163,6.163,0,0,1,6.3,6.1,6.358,6.358,0,0,1-6.329,6.45,6.36,6.36,0,0,1-6.213-6.282A6.438,6.438,0,0,1-2732.382,257.54Zm.28,9.752c1.185-1.55,2.577-2.621,2.413-3.339-.233-1.024-1.605-1.788-2.49-2.664-.775.848-2.1,1.649-2.17,2.555C-2734.421,264.718-2733.209,265.7-2732.1,267.292Z" transform="translate(2786.21 -68.292)" fill="#00a9ad"/><path d="M-2732.309,422.089a6.33,6.33,0,0,1-6.289-6.444,6.483,6.483,0,0,1,6.437-6.039,6.238,6.238,0,0,1,6.043,6.342A6.143,6.143,0,0,1-2732.309,422.089Zm.2-9.829c-1.144,1.678-2.432,2.758-2.264,3.516.225,1.012,1.579,1.773,2.448,2.642.824-.826,2.307-1.655,2.3-2.476C-2729.633,414.943-2730.892,413.952-2732.113,412.26Z" transform="translate(2786.199 -130.231)" fill="#00a9ad"/><path d="M-2092.529,304.661a7.22,7.22,0,0,1-7.109-7.456,7.363,7.363,0,0,1,7.213-7.151A7.448,7.448,0,0,1-2085,297.3,7.214,7.214,0,0,1-2092.529,304.661Zm0-10.752c-2.412.164-3.692,1.389-3.644,3.583a3.326,3.326,0,0,0,3.664,3.419,3.322,3.322,0,0,0,3.457-3.611A3.29,3.29,0,0,0-2092.53,293.909Z" transform="translate(2525.938 -81.536)" fill="#00a9ad"/><path d="M-2092.349,373.59a7.148,7.148,0,0,1,7.295,7.295,7.386,7.386,0,0,1-7.38,7.3,7.355,7.355,0,0,1-7.178-7.186A7.371,7.371,0,0,1-2092.349,373.59Zm3.362,7.5c-.138-2.266-1.251-3.583-3.412-3.789a3.559,3.559,0,0,0-3.807,3.579,3.264,3.264,0,0,0,3.568,3.43A3.243,3.243,0,0,0-2088.987,381.092Z" transform="translate(2525.928 -115.561)" fill="#00a9ad"/><path d="M-2096.207,263.77a6.477,6.477,0,0,1-6.2,6.317,6.2,6.2,0,0,1-6.3-6.122,6.226,6.226,0,0,1,6.262-6.441A6.371,6.371,0,0,1-2096.207,263.77Zm-3.078-.016c-1.569-1.146-2.6-2.453-3.335-2.3-1.041.212-1.862,1.5-2.777,2.327.919.833,1.741,2.122,2.789,2.342C-2101.889,266.271-2100.859,264.937-2099.285,263.754Z" transform="translate(2529.631 -68.286)" fill="#00a9ad"/><path d="M-2108.626,415.894a6.165,6.165,0,0,1,6.063-6.278,6.419,6.419,0,0,1,6.389,6.068,6.442,6.442,0,0,1-6.346,6.435A6.078,6.078,0,0,1-2108.626,415.894Zm5.979-3.627c-1.269,1.709-2.552,2.689-2.546,3.661,0,.829,1.6,2.4,2.3,2.294a3.749,3.749,0,0,0,2.471-2.428C-2100.251,415.048-2101.513,413.965-2102.647,412.267Z" transform="translate(2529.599 -130.235)" fill="#00a9ad"/><path d="M-2452.565,13.363a7.338,7.338,0,0,1-7.367,7.291,7.366,7.366,0,0,1-7.263-7.416,7.456,7.456,0,0,1,7.1-7.279A7.209,7.209,0,0,1-2452.565,13.363Zm-6.632-3.709c-2.915.737-4.264,1.807-4.079,4.074.176,2.148,1.318,3.509,3.6,3.364,2.226-.141,3.607-1.743,3.24-3.694C-2456.713,11.948-2458.339,10.752-2459.2,9.654Z" transform="translate(2675.651 34.182)" fill="#00a9ad"/><path d="M-2383.707,13.565a7.215,7.215,0,0,1,7.369-7.54,7.3,7.3,0,0,1,7.241,7.088,7.4,7.4,0,0,1-7.4,7.576A7.348,7.348,0,0,1-2383.707,13.565Zm7.746,3.542c1.943-.2,3.063-1.5,2.953-3.681s-1.375-3.484-3.6-3.366a3.233,3.233,0,0,0-3.3,3.7C-2379.78,15.833-2378.552,17.16-2375.961,17.108Z" transform="translate(2641.645 34.154)" fill="#00a9ad"/><path d="M-2335.124,24.824a6.169,6.169,0,0,1-6.333,6.328A6.227,6.227,0,0,1-2347.692,25a6.471,6.471,0,0,1,6.044-6.429A6.459,6.459,0,0,1-2335.124,24.824Zm-2.832.524c-1.487-1.179-2.379-2.439-3.252-2.426s-1.752,1.284-2.627,2c.8.917,1.469,2.329,2.445,2.589C-2340.665,27.709-2339.541,26.41-2337.956,25.348Z" transform="translate(2626.975 29.044)" fill="#00a9ad"/><path d="M-2499.739,25.036a6.335,6.335,0,0,1,6.373-6.356,6.291,6.291,0,0,1,6.214,6.207,6.32,6.32,0,0,1-6.4,6.338A6.185,6.185,0,0,1-2499.739,25.036Zm9.728.213c-1.563-1.131-2.62-2.453-3.358-2.294-.989.212-1.731,1.571-2.579,2.438.853.784,1.661,2.117,2.573,2.191C-2492.521,27.655-2491.559,26.393-2490.012,25.249Z" transform="translate(2688.906 29)" fill="#00a9ad"/><path d="M-2611.708,79.184a7.445,7.445,0,0,1-7.835,7.445,7.29,7.29,0,0,1-6.867-7.429,7.265,7.265,0,0,1,7.366-7.222A7.123,7.123,0,0,1-2611.708,79.184Zm-7.153,3.844c2.053-.235,3.519-1.13,3.528-3.472a3.236,3.236,0,0,0-3.466-3.544,3.174,3.174,0,0,0-3.569,3.422C-2622.4,81.611-2621.136,82.853-2618.861,83.028Z" transform="translate(2740.502 7.29)" fill="#00a9ad"/><path d="M-2685.293,137.943a7.3,7.3,0,0,1,7.283-7.1,7.283,7.283,0,0,1,7.352,7.309,7.38,7.38,0,0,1-7.318,7.419A7.244,7.244,0,0,1-2685.293,137.943Zm11.042.235a3.3,3.3,0,0,0-3.732-3.28,3.173,3.173,0,0,0-3.3,3.406,3.424,3.424,0,0,0,3.72,3.647C-2675.238,141.808-2674.411,140.3-2674.251,138.178Z" transform="translate(2764.486 -16.686)" fill="#00a9ad"/><path d="M-2694.111,177.113a5.848,5.848,0,0,1-5.881-6.306,6.247,6.247,0,0,1,6.189-6.174,6.368,6.368,0,0,1,6.3,6.435C-2687.625,174.68-2690.328,177.154-2694.111,177.113Zm4.233-6c-1.871-1.137-2.89-2.194-3.963-2.252-.7-.039-2.242,1.718-2.083,2.066a4.56,4.56,0,0,0,2.513,2.49C-2692.685,173.591-2691.613,172.311-2689.878,171.115Z" transform="translate(2770.473 -30.45)" fill="#00a9ad"/><path d="M-2580.139,63.216a6.193,6.193,0,0,1-6.416,6.561,6.426,6.426,0,0,1-6.079-6.379,6.27,6.27,0,0,1,6.234-6.146A5.86,5.86,0,0,1-2580.139,63.216Zm-2.448.434c-1.77-1.14-2.756-2.22-3.814-2.3-.668-.049-2.191,1.683-2.024,2.125a4.516,4.516,0,0,0,2.475,2.579C-2585.315,66.246-2584.219,64.878-2582.587,63.65Z" transform="translate(2726.744 13.289)" fill="#00a9ad"/><path d="M-2217.137,86.641a7.383,7.383,0,0,1-7.494-7.456A7.179,7.179,0,0,1-2217.552,72a7.261,7.261,0,0,1,7.678,7.222A7.408,7.408,0,0,1-2217.137,86.641Zm-.23-10.668c-2.306.075-3.63,1.282-3.669,3.442a3.227,3.227,0,0,0,3.445,3.563,3.173,3.173,0,0,0,3.578-3.393C-2213.929,77.362-2215.283,76.225-2217.367,75.973Z" transform="translate(2576.85 7.284)" fill="#00a9ad"/><path d="M-2158.363,145.555a7.3,7.3,0,0,1-7.222-7.748,7.221,7.221,0,0,1,7.128-6.9,7.263,7.263,0,0,1,7.516,7.134A7.268,7.268,0,0,1-2158.363,145.555Zm3.4-7.27c-.248-2.189-1.522-3.418-3.691-3.34-2.153.078-3.491,1.3-3.358,3.6a3.246,3.246,0,0,0,3.614,3.408C-2156.12,141.9-2155.143,140.449-2154.958,138.286Z" transform="translate(2552.8 -16.711)" fill="#00a9ad"/><path d="M-2134.85,170.949a5.9,5.9,0,0,1-6.036,6.194,6.177,6.177,0,0,1-6.4-6.533,6.312,6.312,0,0,1,6.125-5.964A6.133,6.133,0,0,1-2134.85,170.949Zm-2.645.156c-1.795-1.157-2.9-2.41-3.666-2.228a4.38,4.38,0,0,0-2.409,2.556c-.149.374,1.438,2.061,2.15,2.009C-2140.349,173.363-2139.351,172.284-2137.5,171.105Z" transform="translate(2545.347 -30.454)" fill="#00a9ad"/><path d="M-2254.673,63.411a5.867,5.867,0,0,1,6.083-6.111,6.169,6.169,0,0,1,6.4,6.241,6.283,6.283,0,0,1-6.191,6.181A6.059,6.059,0,0,1-2254.673,63.411Zm9.579.25c-1.727-1.166-2.73-2.371-3.57-2.267a3.3,3.3,0,0,0-2.288,2.274c-.046.817,1.309,2.4,2.06,2.406C-2247.9,66.081-2246.9,64.884-2245.094,63.66Z" transform="translate(2589.087 13.269)" fill="#00a9ad"/></g></g></g></svg>