<svg xmlns="http://www.w3.org/2000/svg" width="160.879" height="35.149" viewBox="0 0 160.879 35.149"><g transform="translate(1163.013 -1199.615)"><g transform="translate(-1163.013 1199.615)"><path d="M-941.425,1234.764c-9.7-.018-17.272-7.869-17.247-17.872a17.313,17.313,0,0,1,17.524-17.277c9.573.023,17.039,7.963,17.014,18.094A17.358,17.358,0,0,1-941.425,1234.764Zm11.076-17.655a11.171,11.171,0,0,0-11.168-11.157,11.19,11.19,0,0,0-10.937,11.234,11.143,11.143,0,0,0,11.091,11.221A11.148,11.148,0,0,0-930.35,1217.109Z" transform="translate(1021.62 -1199.615)" fill="#575b7b"/><path d="M-1082.386,1249.1c-1.521.511-2.515.219-3.007-1.272a13.305,13.305,0,0,0-.8-1.665c-1.026-2.073-1.589-2.345-4.22-1.9,0,1.069-.005,2.181,0,3.292.011,1.853.015,1.853-2.021,1.63v-11.6c2.548,0,5.052-.09,7.544.036a2.72,2.72,0,0,1,2.514,2.353,3.259,3.259,0,0,1-1.165,3.447,9.586,9.586,0,0,1-1.273.736Zm-5.257-7.193v-.012a5.944,5.944,0,0,0,1.825-.042,5.279,5.279,0,0,0,1.38-1.071c-.447-.361-.86-.969-1.346-1.035-1.154-.156-2.345-.012-3.517-.073-.913-.048-1.134.366-1.118,1.188.015.779.285,1.126,1.091,1.055C-1088.771,1241.867-1088.206,1241.907-1087.644,1241.907Z" transform="translate(1114.173 -1225.868)" fill="#575b7b"/><path d="M-1013.058,1237.568v11.62h-2.005v-7.17c-1,.759-1.788,1.266-2.466,1.892a1.406,1.406,0,0,1-2.236.032c-.66-.624-1.426-1.135-2.425-1.914v7.168h-2.1v-11.62c1.593,1.27,3.046,2.356,4.411,3.543.831.723,1.463.849,2.35.05C-1016.2,1239.976-1014.75,1238.919-1013.058,1237.568Z" transform="translate(1067.021 -1225.876)" fill="#575b7b"/><path d="M-806.087,1249.494l-9.113-7.2v7.1h-2.112v-11.494l9.136,7.131v-7.182h2.09Z" transform="translate(923.807 -1226.067)" fill="#575b7b"/><path d="M-1157.156,1237.359l5.825,11.594c-1.638.548-2.489.126-3.084-1.3-.742-1.778-1.736-3.452-2.748-5.415-.985,1.932-1.852,3.639-2.726,5.343-.884,1.721-.888,1.72-3.123,1.434Z" transform="translate(1163.013 -1225.732)" fill="#575b7b"/><path d="M-678.718,1249l5.838-11.626,5.852,11.629c-1.529.405-2.5.218-3.117-1.331-.7-1.748-1.666-3.386-2.662-5.362-.651,1.164-1.208,2.127-1.731,3.108a15.177,15.177,0,0,0-1.138,2.344C-676.184,1249.311-677.227,1249.4-678.718,1249Z" transform="translate(827.907 -1225.741)" fill="#575b7b"/><path d="M-729.508,1241.183q0,4.829,0,9.658a4.014,4.014,0,0,1-.134.678h-2c0-2.972-.1-5.927.078-8.866.036-.612,1.067-1.166,1.639-1.746Z" transform="translate(864.547 -1228.187)" fill="#575b7b"/></g></g></svg>