<svg xmlns="http://www.w3.org/2000/svg" xmlns:xlink="http://www.w3.org/1999/xlink" width="687" height="693" viewBox="0 0 687 693"><defs><clipPath id="a"><rect width="687" height="693" transform="translate(683)" fill="#fff" stroke="#707070" stroke-width="1"/></clipPath><clipPath id="b"><rect width="149" height="104" fill="none"/></clipPath></defs><g transform="translate(-683)" clip-path="url(#a)"><path d="M747.135,0a40,40,0,0,1,34.656,20.027l233.7,405.5a40,40,0,0,1,0,39.946l-233.7,405.5A40,40,0,0,1,747.135,891H279.865a40,40,0,0,1-34.656-20.027l-233.7-405.5a40,40,0,0,1,0-39.946l233.7-405.5A40,40,0,0,1,279.865,0Z" transform="translate(1607 -357) rotate(90)" fill="#edf5f5"/><g transform="translate(1071 513)" clip-path="url(#b)"><g transform="translate(-83 -1421)"><circle cx="5" cy="5" r="5" transform="translate(83 1421)" fill="#ffaf00"/></g><g transform="translate(-48 -1421)"><circle cx="5" cy="5" r="5" transform="translate(83 1421)" fill="#ffaf00"/></g><g transform="translate(-13 -1421)"><circle cx="5" cy="5" r="5" transform="translate(83 1421)" fill="#ffaf00"/></g><g transform="translate(22 -1421)"><circle cx="5" cy="5" r="5" transform="translate(83 1421)" fill="#ffaf00"/></g><g transform="translate(57 -1421)"><circle cx="5" cy="5" r="5" transform="translate(83 1421)" fill="#ffaf00"/></g><g transform="translate(-83 -1382)"><circle cx="5" cy="5" r="5" transform="translate(83 1421)" fill="#ffaf00"/></g><g transform="translate(-48 -1382)"><circle cx="5" cy="5" r="5" transform="translate(83 1421)" fill="#ffaf00"/></g><g transform="translate(-13 -1382)"><circle cx="5" cy="5" r="5" transform="translate(83 1421)" fill="#ffaf00"/></g><g transform="translate(22 -1382)"><circle cx="5" cy="5" r="5" transform="translate(83 1421)" fill="#ffaf00"/></g><g transform="translate(57 -1382)"><circle cx="5" cy="5" r="5" transform="translate(83 1421)" fill="#ffaf00"/></g><g transform="translate(-83 -1343)"><circle cx="5" cy="5" r="5" transform="translate(83 1421)" fill="#ffaf00"/></g><g transform="translate(-48 -1343)"><circle cx="5" cy="5" r="5" transform="translate(83 1421)" fill="#ffaf00"/></g><g transform="translate(-13 -1343)"><circle cx="5" cy="5" r="5" transform="translate(83 1421)" fill="#ffaf00"/></g><g transform="translate(22 -1343)"><circle cx="5" cy="5" r="5" transform="translate(83 1421)" fill="#ffaf00"/></g><g transform="translate(57 -1343)"><circle cx="5" cy="5" r="5" transform="translate(83 1421)" fill="#ffaf00"/></g></g></g></svg>