<svg xmlns="http://www.w3.org/2000/svg" width="36" height="36" viewBox="0 0 36 36"><g opacity="0.5"><path d="M213.779,210.39a3.39,3.39,0,1,1-3.39-3.39A3.39,3.39,0,0,1,213.779,210.39Zm0,0" transform="translate(-192.39 -192.39)" fill="#00a9ad"/><path d="M151.749,137.828a3.368,3.368,0,0,0-1.93-1.93,5.626,5.626,0,0,0-1.888-.35c-1.073-.049-1.394-.059-4.109-.059s-3.037.01-4.109.059a5.63,5.63,0,0,0-1.888.35,3.369,3.369,0,0,0-1.93,1.93,5.629,5.629,0,0,0-.35,1.888c-.049,1.072-.059,1.394-.059,4.109s.011,3.037.059,4.109a5.627,5.627,0,0,0,.35,1.888,3.368,3.368,0,0,0,1.93,1.93,5.62,5.62,0,0,0,1.888.35c1.072.049,1.394.059,4.109.059s3.037-.01,4.109-.059a5.62,5.62,0,0,0,1.888-.35,3.368,3.368,0,0,0,1.93-1.93,5.632,5.632,0,0,0,.35-1.888c.049-1.073.059-1.394.059-4.109s-.01-3.037-.059-4.109A5.62,5.62,0,0,0,151.749,137.828Zm-7.927,11.219a5.222,5.222,0,1,1,5.222-5.222A5.222,5.222,0,0,1,143.821,149.047Zm5.428-9.43a1.22,1.22,0,1,1,1.22-1.22A1.22,1.22,0,0,1,149.25,139.617Zm0,0" transform="translate(-125.821 -125.825)" fill="#00a9ad"/><path d="M18,0A18,18,0,1,0,36,18,18,18,0,0,0,18,0ZM28.274,22.261a7.583,7.583,0,0,1-.48,2.509,5.285,5.285,0,0,1-3.023,3.023,7.589,7.589,0,0,1-2.509.48c-1.1.05-1.454.062-4.261.062s-3.159-.012-4.262-.062a7.589,7.589,0,0,1-2.509-.48A5.285,5.285,0,0,1,8.207,24.77a7.581,7.581,0,0,1-.48-2.509c-.051-1.1-.063-1.455-.063-4.262s.012-3.159.062-4.261a7.584,7.584,0,0,1,.48-2.509A5.289,5.289,0,0,1,11.23,8.207a7.59,7.59,0,0,1,2.509-.48c1.1-.05,1.454-.062,4.261-.062s3.159.012,4.261.063a7.592,7.592,0,0,1,2.509.48,5.286,5.286,0,0,1,3.023,3.023,7.583,7.583,0,0,1,.481,2.509c.05,1.1.062,1.454.062,4.261S28.324,21.159,28.274,22.261Zm0,0" fill="#00a9ad"/></g></svg>